<?xml version="1.0" encoding="UTF-8" standalone="no"?> <svg width="30" height="30" viewBox="0 0 64 64" fill="#0c1844" xmlns="http://www.w3.org/2000/svg">
<path d="M59.0001 38.1C57.2201 34.93 59.0001 30.75 55.6101 27.94L48.2101 19.24C42.6301 
12.67 41.0701 10.83 40.4601 10.32V10.25C38.0001 8.84002 29.4601 4.42002 23.1201 6.46002C21.8682
 6.85877 20.718 7.52502 19.7493 8.41257C18.7806 9.30012 18.0165 10.3877 17.5101 11.6C17.0532 12.635 16.9348 
 13.7877 17.1718 14.8939C17.4089 16.0001 17.9892 17.0032 18.8301 17.76C19.9951 18.8038 21.4435 
 19.4786 22.992 19.6994C24.5406 19.9201 26.1198 19.6767 27.5301 19C30.7301 16.93 35.4301 18.6 36.9101 
 22C37.3101 22.61 39.0801 27.85 38.3301 31.35C38.2037 32.1287 37.8323 32.8468 37.2701 33.4C35.4777 32.9338 
 33.5967 32.9277 31.8014 33.3822C30.0061 33.8367 28.3546 34.7372 27.0001 36C24.5551 34.7453 21.8575 34.0615 
 19.1101 34C16.6778 33.9057 14.2518 34.3084 11.9805 35.1836C9.70915 36.0588 7.64018 37.388 5.90006 39.09C4.11022 
 40.8906 3.10559 43.3262 3.10559 45.865C3.10559 48.4038 4.11022 50.8395 5.90006 52.64C8.12004 55.1148 11.0485 56.8457 
 14.2871 57.5972C17.5256 58.3487 20.9171 58.0843 24.0001 56.84C26.6589 57.6624 29.427 58.0771 32.2101 58.07C41.5601 
 58.07 51.3201 53.54 59.5201 45.16C61.7501 43.26 61.1101 40 59.0001 38.1Z" />
</svg>
