<?xml version="1.0" encoding="UTF-8"?>
<svg version="1.1" stroke-width="1" stroke="red"   viewBox="0 0 2048 2048" width="40" height="40" xmlns="http://www.w3.org/2000/svg">
<path transform="translate(172)" d="m0 0h723v2l9 1 23 6 20 8 23 12 14 10 11 9 12 11 7 7 9 11h2l9-11 18-18 17-13 19-12 21-10 25-8 19-4 3-1h723l4 2 28 7 20 8 21 11 16 11 11 9 15 14v2h2l9 11 11 15 10 17 9 20 7 21 4 17 2 1v730l-2 2-5 21-7 21-8 17-7 12-8 12-11 14-4 5h-2l-2 4-8 8-14 11 5 5 17 16 11 12 13 18 10 17 8 17 8 24 5 18h1v730l-2 1-4 18-9 27-8 16-9 16-12 16-10 11-6 7-8 7-12 10-15 10-25 13-19 7-23 6-13 3h-722v-2l-25-6-15-5-20-9-20-12-14-11-10-9-17-17-5-7h-2l-9 11-6 7-7 6-5 5-12 10-15 10-25 13-19 7-26 7-9 2h-716l-16-4-22-6-16-6-16-8-15-9-12-9-11-9-18-18-8-10-9-13-9-15-8-17-7-20-7-29v-720l4-16 6-20 6-16 8-16 9-15 9-12 7-9h2l2-4 15-15 10-8-13-12-18-18-13-17-8-13-10-19-8-21-8-32v-720l2-6 5-22 7-20 11-23 9-14 12-16 15-16 12-11 18-13 21-12 19-8 19-6zm25 80-20 2-15 4-15 6-15 9-11 9-10 10-7 8-10 16-7 16-4 14-2 14-1 23v651l2 23 4 16 5 13 7 13 8 11 9 10 7 7 15 11 16 8 14 5 14 3 8 1h686l18-3 15-5 16-8 11-7 13-11 10-11 9-13 8-16 6-20 2-14v-686l-3-18-6-18-8-16-10-14-10-11-17-13-19-10-15-5-17-3-14-1zm984 0-20 2-15 4-15 6-15 9-13 11-6 5-11 14-8 13-7 16-4 14-2 14-1 23v653l2 22 4 15 5 13 7 13 8 11 9 10 7 7 15 11 16 8 14 5 14 3 8 1h686l18-3 15-5 16-8 11-7 13-11 10-11 9-13 8-16 6-20 2-14v-686l-3-18-6-18-8-16-10-14-10-11-17-13-19-10-15-5-17-3-14-1zm-157 905-7 7-5 6v2h-2l-7 8-3 2v2l-4 2-10 8 1 4 10 9 8 7 7 7 7 8 4 5 4-2 11-13 14-14 10-8-2-4-10-9-19-19-6-8zm-826 79-21 2-15 4-15 6-15 9-11 9-10 10-7 8-10 16-7 16-4 14-2 14-1 23v651l2 23 4 16 5 13 7 13 8 11 9 10 7 7 14 10 14 8 17 6 16 3 7 1h685l18-3 18-6 17-9 12-9 12-11 12-15 8-14 7-19 3-14 1-8v-686l-3-18-5-16-8-16-7-11-12-14-12-10-14-9-17-8-19-5-21-2zm984 0-21 2-15 4-15 6-15 9-11 9-10 10-7 8-10 16-7 16-4 14-2 14-1 26v649l2 22 4 16 6 15 6 11 8 11 9 10 7 7 14 10 14 8 17 6 16 3 7 1h685l18-3 18-6 17-9 12-9 12-11 12-15 8-14 7-19 3-14 1-8v-686l-3-18-5-16-8-16-7-11-12-14-12-10-14-9-17-8-19-5-21-2z"/>
<path transform="translate(539,331)" d="m0 0h25l25 3 20 5 22 8 16 8 17 10 13 10 14 12 7 7 7 8 10 13 9 14 8 14 8 19 7 23 4 21 1 12v28l-2 17-4 20-7 21-9 20-8 14 1 5 21 21 6 10 3 8v16l-4 11-8 11-10 7-13 4h-11l-12-4-10-7-20-20-5 1-24 13-21 8-18 5-22 4-12 1h-24l-24-3-24-6-19-7-20-10-14-9-13-10-10-9-17-17-14-19-9-15-11-23-8-26-4-23-1-9v-27l3-24 4-17 7-21 12-25 9-14 10-13 10-11 7-8 14-12 17-12 16-9 19-9 22-7 19-4zm4 81-20 3-18 6-14 7-14 10-12 11-8 9-9 14-8 16-5 16-3 19v18l3 18 5 16 8 17 9 13 9 10 8 8 11 8 16 9 12 5 15 4 14 2h19l18-3 16-5 9-4-6-7-18-18-6-10-3-8v-15l4-12 6-8 8-7 8-4 15-2 11 2 10 5 10 9 7 7h2l2 4h2l2 4 4-1 5-15 3-14 1-8v-18l-3-19-4-14-10-21-10-14-10-11-17-13-19-10-18-6-20-3z"/>
<path transform="translate(1406,331)" d="m0 0h9l12 3 10 6 7 7 6 12 2 12 1 231 3 10 6 10 4 5 2 1v2l4 2 13 9 13 6 14 3h17l15-3 16-7 12-8 10-9 7-12 3-14 1-232 4-12 7-10 11-8 8-3 6-1h8l12 3 9 5 8 8 5 9 3 10v234l-3 22-5 17-10 21-15 20h-2l-2 4-11 10-17 12-14 8-15 7-15 5-24 5-11 1h-23l-20-3-17-5-17-7-14-8-15-11-10-9-14-14-12-17-8-16-6-18-3-18-1-15v-216l2-15 6-12 8-9 11-6z"/>
<path transform="translate(1421,1315)" d="m0 0h187l17 1 10 3 9 6 8 9 4 8 3 12-2 14-6 12-11 17-9 14-8 12-11 17-15 23-11 17-7 11-8 12-15 23-13 20-15 23-9 14-8 12-15 23-8 12-3 4 16 1h109l20 1 10 3 10 7 7 8 5 11 1 3v15l-4 12-8 10-7 6-10 4-4 1-18 1h-198l-13-1-11-4-6-4-8-8-6-12-2-9 1-11 5-13 8-12 11-17 18-27 10-16 19-29 13-20 18-27 10-16 60-92 1-1-122-1-16-2-9-4-8-6-8-11-3-8-1-13 3-13 7-11 7-6 11-6z"/>
<path transform="translate(524,1316)" d="m0 0h16l11 4 8 6 7 8 5 10 1 5 1 47v53l-1 235-4 11-6 9h-2v2l-11 7-10 3h-15l-10-3-11-8-7-10-4-11-1-8v-322l2-10 6-12 5-6 9-6 6-3z"/>
<path transform="translate(168,2047)" d="m0 0 4 1z"/>
<path transform="translate(2047,1148)" d="m0 0"/>
</svg>
